<?xml version="1.0" encoding="UTF-8" standalone="no"?>
<!DOCTYPE svg PUBLIC "-//W3C//DTD SVG 1.1//EN"
 "http://www.w3.org/Graphics/SVG/1.1/DTD/svg11.dtd">
<!-- Generated by graphviz version 2.40.1 (20161225.0304)
 -->
<!-- Title: %3 Pages: 1 -->
<svg width="209pt" height="98pt"
 viewBox="0.00 0.00 209.18 98.00" xmlns="http://www.w3.org/2000/svg" xmlns:xlink="http://www.w3.org/1999/xlink">
<g id="graph0" class="graph" transform="scale(1 1) rotate(0) translate(4 94)">
<title>%3</title>
<polygon fill="#ffffff" stroke="transparent" points="-4,4 -4,-94 205.1771,-94 205.1771,4 -4,4"/>
<!-- Tiago Miranda -->
<g id="node1" class="node">
<title>Tiago Miranda</title>
<g id="a_node1"><a xlink:href="Tiago Miranda.html" xlink:title="Colaborou">
<ellipse fill="none" stroke="#000000" cx="153.736" cy="-72" rx="47.3823" ry="18"/>
<text text-anchor="middle" x="153.736" y="-67.8" font-family="Times,serif" font-size="14.00" fill="#000000">Colaborou</text>
</a>
</g>
</g>
<!-- Mariza -->
<g id="node2" class="node">
<title>Mariza</title>
<g id="a_node2"><a xlink:href="Mariza.html" xlink:title="Mariza">
<ellipse fill="none" stroke="#000000" cx="35.1475" cy="-45" rx="35.2956" ry="18"/>
<text text-anchor="middle" x="35.1475" y="-40.8" font-family="Times,serif" font-size="14.00" fill="#000000">Mariza</text>
</a>
</g>
</g>
<!-- Mariza&#45;&gt;Tiago Miranda -->
<g id="edge1" class="edge">
<title>Mariza&#45;&gt;Tiago Miranda</title>
<path fill="none" stroke="#000000" d="M67.5523,-52.3779C78.4819,-54.8663 90.958,-57.7068 102.9587,-60.4391"/>
<polygon fill="#000000" stroke="#000000" points="102.3556,-63.8913 112.8831,-62.6987 103.9096,-57.066 102.3556,-63.8913"/>
</g>
<!-- Artur Batalha -->
<g id="node3" class="node">
<title>Artur Batalha</title>
<g id="a_node3"><a xlink:href="Artur Batalha.html" xlink:title="Colaborou">
<ellipse fill="none" stroke="#000000" cx="153.736" cy="-18" rx="47.3823" ry="18"/>
<text text-anchor="middle" x="153.736" y="-13.8" font-family="Times,serif" font-size="14.00" fill="#000000">Colaborou</text>
</a>
</g>
</g>
<!-- Mariza&#45;&gt;Artur Batalha -->
<g id="edge2" class="edge">
<title>Mariza&#45;&gt;Artur Batalha</title>
<path fill="none" stroke="#000000" d="M67.5523,-37.6221C78.4819,-35.1337 90.958,-32.2932 102.9587,-29.5609"/>
<polygon fill="#000000" stroke="#000000" points="103.9096,-32.934 112.8831,-27.3013 102.3556,-26.1087 103.9096,-32.934"/>
</g>
</g>
</svg>
