<?xml version="1.0" encoding="UTF-8" standalone="no"?>
<!DOCTYPE svg PUBLIC "-//W3C//DTD SVG 1.1//EN"
 "http://www.w3.org/Graphics/SVG/1.1/DTD/svg11.dtd">
<!-- Generated by graphviz version 2.40.1 (20161225.0304)
 -->
<!-- Title: %3 Pages: 1 -->
<svg width="725pt" height="293pt"
 viewBox="0.00 0.00 725.26 293.00" xmlns="http://www.w3.org/2000/svg" xmlns:xlink="http://www.w3.org/1999/xlink">
<g id="graph0" class="graph" transform="scale(1 1) rotate(0) translate(4 289)">
<title>%3</title>
<polygon fill="#ffffff" stroke="transparent" points="-4,4 -4,-289 721.2635,-289 721.2635,4 -4,4"/>
<!-- Tiago Miranda -->
<g id="node1" class="node">
<title>Tiago Miranda</title>
<g id="a_node1"><a xlink:href="Tiago Miranda.html" xlink:title="Tiago Miranda">
<ellipse fill="none" stroke="#000000" cx="258.4173" cy="-180" rx="62.6954" ry="18"/>
<text text-anchor="middle" x="258.4173" y="-175.8" font-family="Times,serif" font-size="14.00" fill="#000000">Tiago Miranda</text>
</a>
</g>
</g>
<!-- Artur Batalha -->
<g id="node2" class="node">
<title>Artur Batalha</title>
<ellipse fill="none" stroke="#000000" cx="581.9016" cy="-267" rx="58.465" ry="18"/>
<text text-anchor="middle" x="581.9016" y="-262.8" font-family="Times,serif" font-size="14.00" fill="#000000">Artur Batalha</text>
</g>
<!-- Tiago Miranda&#45;&gt;Artur Batalha -->
<g id="edge1" class="edge">
<title>Tiago Miranda&#45;&gt;Artur Batalha</title>
<path fill="none" stroke="#000000" d="M298.0416,-194.0645C335.8555,-207.1453 394.5952,-226.5807 446.5397,-240 470.5905,-246.2133 497.3581,-251.8217 520.6989,-256.2964"/>
<polygon fill="#000000" stroke="#000000" points="520.3402,-259.7905 530.8159,-258.2068 521.639,-252.912 520.3402,-259.7905"/>
<text text-anchor="middle" x="399.7673" y="-236.8" font-family="Times,serif" font-size="14.00" fill="#000000">Aprendeu</text>
</g>
<!-- Telemoveis -->
<g id="node3" class="node">
<title>Telemoveis</title>
<g id="a_node3"><a xlink:href="Telemoveis.html" xlink:title="Telemoveis">
<ellipse fill="none" stroke="#000000" cx="581.9016" cy="-213" rx="50.9901" ry="18"/>
<text text-anchor="middle" x="581.9016" y="-208.8" font-family="Times,serif" font-size="14.00" fill="#000000">Telemoveis</text>
</a>
</g>
</g>
<!-- Tiago Miranda&#45;&gt;Telemoveis -->
<g id="edge2" class="edge">
<title>Tiago Miranda&#45;&gt;Telemoveis</title>
<path fill="none" stroke="#000000" d="M317.7493,-186.0527C376.0796,-192.0032 464.5977,-201.0333 522.8359,-206.9745"/>
<polygon fill="#000000" stroke="#000000" points="522.6818,-210.4768 532.9855,-208.0099 523.3923,-203.513 522.6818,-210.4768"/>
<text text-anchor="middle" x="399.7673" y="-198.8" font-family="Times,serif" font-size="14.00" fill="#000000">Produziu</text>
</g>
<!-- Celulitite -->
<g id="node4" class="node">
<title>Celulitite</title>
<g id="a_node4"><a xlink:href="Celulitite.html" xlink:title="Celulitite">
<ellipse fill="none" stroke="#000000" cx="581.9016" cy="-159" rx="43.0387" ry="18"/>
<text text-anchor="middle" x="581.9016" y="-154.8" font-family="Times,serif" font-size="14.00" fill="#000000">Celulitite</text>
</a>
</g>
</g>
<!-- Tiago Miranda&#45;&gt;Celulitite -->
<g id="edge3" class="edge">
<title>Tiago Miranda&#45;&gt;Celulitite</title>
<path fill="none" stroke="#000000" d="M313.8373,-171.4501C332.0071,-168.9591 352.3238,-166.5054 370.9948,-165 424.4583,-160.6895 485.7621,-159.3471 528.4462,-158.9876"/>
<polygon fill="#000000" stroke="#000000" points="528.6341,-162.4865 538.6098,-158.9176 528.5859,-155.4866 528.6341,-162.4865"/>
<text text-anchor="middle" x="399.7673" y="-167.8" font-family="Times,serif" font-size="14.00" fill="#000000">Produziu</text>
</g>
<!-- Festival RTP da Cancao 2019 -->
<g id="node5" class="node">
<title>Festival RTP da Cancao 2019</title>
<g id="a_node5"><a xlink:href="Festival RTP da Cancao 2019.html" xlink:title="Festival RTP da Cancao 2019">
<ellipse fill="none" stroke="#000000" cx="581.9016" cy="-105" rx="114.7452" ry="18"/>
<text text-anchor="middle" x="581.9016" y="-100.8" font-family="Times,serif" font-size="14.00" fill="#000000">Festival RTP da Cancao 2019</text>
</a>
</g>
</g>
<!-- Tiago Miranda&#45;&gt;Festival RTP da Cancao 2019 -->
<g id="edge4" class="edge">
<title>Tiago Miranda&#45;&gt;Festival RTP da Cancao 2019</title>
<path fill="none" stroke="#000000" d="M306.7736,-168.4902C321.8289,-164.3001 338.3226,-159.0756 352.9948,-153 361.4502,-149.4987 362.3752,-146.0751 370.9948,-143 404.6428,-130.9959 442.7212,-122.6508 477.1726,-116.9086"/>
<polygon fill="#000000" stroke="#000000" points="477.9452,-120.3293 487.2611,-115.2832 476.8317,-113.4184 477.9452,-120.3293"/>
<text text-anchor="middle" x="399.7673" y="-145.8" font-family="Times,serif" font-size="14.00" fill="#000000">Participou</text>
</g>
<!-- Festival Eurovisao da Cancao 2019 -->
<g id="node6" class="node">
<title>Festival Eurovisao da Cancao 2019</title>
<g id="a_node6"><a xlink:href="Festival Eurovisao da Cancao 2019.html" xlink:title="Festival Eurovisao da Cancao 2019">
<ellipse fill="none" stroke="#000000" cx="581.9016" cy="-51" rx="135.224" ry="18"/>
<text text-anchor="middle" x="581.9016" y="-46.8" font-family="Times,serif" font-size="14.00" fill="#000000">Festival Eurovisao da Cancao 2019</text>
</a>
</g>
</g>
<!-- Tiago Miranda&#45;&gt;Festival Eurovisao da Cancao 2019 -->
<g id="edge5" class="edge">
<title>Tiago Miranda&#45;&gt;Festival Eurovisao da Cancao 2019</title>
<path fill="none" stroke="#000000" d="M315.6938,-172.5375C329.1607,-168.5227 342.6,-162.3812 352.9948,-153 368.9861,-138.5681 355.7443,-123.2126 370.9948,-108 393.7721,-85.2794 424.6089,-71.3574 455.6642,-62.8978"/>
<polygon fill="#000000" stroke="#000000" points="456.9134,-66.1917 465.7448,-60.3388 455.191,-59.4069 456.9134,-66.1917"/>
<text text-anchor="middle" x="399.7673" y="-110.8" font-family="Times,serif" font-size="14.00" fill="#000000">Participou</text>
</g>
<!-- Mariza -->
<g id="node7" class="node">
<title>Mariza</title>
<g id="a_node7"><a xlink:href="Mariza.html" xlink:title="Mariza">
<ellipse fill="none" stroke="#000000" cx="35.1475" cy="-126" rx="35.2956" ry="18"/>
<text text-anchor="middle" x="35.1475" y="-121.8" font-family="Times,serif" font-size="14.00" fill="#000000">Mariza</text>
</a>
</g>
</g>
<!-- Mariza&#45;&gt;Tiago Miranda -->
<g id="edge7" class="edge">
<title>Mariza&#45;&gt;Tiago Miranda</title>
<g id="a_edge7"><a xlink:href="Tiago Miranda.html" xlink:title="Ensinou">
<path fill="none" stroke="#000000" d="M63.9186,-136.4344C71.767,-139.0911 80.309,-141.8109 88.2949,-144 123.2365,-153.5781 162.8049,-162.0875 194.9829,-168.4253"/>
<polygon fill="#000000" stroke="#000000" points="194.6709,-171.9302 205.1554,-170.4054 196.0083,-165.0592 194.6709,-171.9302"/>
</a>
</g>
<g id="a_edge7&#45;label"><a xlink:href="Tiago Miranda.html" xlink:title="Ensinou">
<text text-anchor="middle" x="117.0674" y="-159.8" font-family="Times,serif" font-size="14.00" fill="#000000">Ensinou</text>
</a>
</g>
</g>
<!-- Mariza&#45;&gt;Artur Batalha -->
<g id="edge6" class="edge">
<title>Mariza&#45;&gt;Artur Batalha</title>
<path fill="none" stroke="#000000" d="M50.2245,-142.569C60.2623,-152.8879 74.1615,-165.8861 88.2949,-175 118.9395,-194.7611 129.0844,-195.9706 163.8399,-207 253.6426,-235.4982 277.733,-238.6239 370.9948,-252 418.2265,-258.7742 471.8685,-262.5364 513.2342,-264.5987"/>
<polygon fill="#000000" stroke="#000000" points="513.3196,-268.1067 523.475,-265.0873 513.6532,-261.1147 513.3196,-268.1067"/>
<text text-anchor="middle" x="258.4173" y="-251.8" font-family="Times,serif" font-size="14.00" fill="#000000">Colaborou</text>
</g>
<!-- Lavava No Rio, Lavava -->
<g id="node8" class="node">
<title>Lavava No Rio, Lavava</title>
<g id="a_node8"><a xlink:href="Lavava No Rio, Lavava.html" xlink:title="Lavava No Rio, Lavava">
<ellipse fill="none" stroke="#000000" cx="258.4173" cy="-126" rx="94.655" ry="18"/>
<text text-anchor="middle" x="258.4173" y="-121.8" font-family="Times,serif" font-size="14.00" fill="#000000">Lavava No Rio, Lavava</text>
</a>
</g>
</g>
<!-- Mariza&#45;&gt;Lavava No Rio, Lavava -->
<g id="edge8" class="edge">
<title>Mariza&#45;&gt;Lavava No Rio, Lavava</title>
<path fill="none" stroke="#000000" d="M70.5252,-126C93.0617,-126 123.5405,-126 153.3874,-126"/>
<polygon fill="#000000" stroke="#000000" points="153.4729,-129.5001 163.4728,-126 153.4728,-122.5001 153.4729,-129.5001"/>
<text text-anchor="middle" x="117.0674" y="-128.8" font-family="Times,serif" font-size="14.00" fill="#000000">Produziu</text>
</g>
<!-- Promete, Jura -->
<g id="node9" class="node">
<title>Promete, Jura</title>
<g id="a_node9"><a xlink:href="Promete, Jura.html" xlink:title="Promete, Jura">
<ellipse fill="none" stroke="#000000" cx="258.4173" cy="-72" rx="58.9668" ry="18"/>
<text text-anchor="middle" x="258.4173" y="-67.8" font-family="Times,serif" font-size="14.00" fill="#000000">Promete, Jura</text>
</a>
</g>
</g>
<!-- Mariza&#45;&gt;Promete, Jura -->
<g id="edge9" class="edge">
<title>Mariza&#45;&gt;Promete, Jura</title>
<path fill="none" stroke="#000000" d="M63.9186,-115.5656C71.767,-112.9089 80.309,-110.1891 88.2949,-108 124.1793,-98.1635 164.9436,-89.454 197.5713,-83.0664"/>
<polygon fill="#000000" stroke="#000000" points="198.2688,-86.4964 207.4215,-81.1599 196.9386,-79.624 198.2688,-86.4964"/>
<text text-anchor="middle" x="117.0674" y="-110.8" font-family="Times,serif" font-size="14.00" fill="#000000">Produziu</text>
</g>
<!-- Festival Womad 2002 -->
<g id="node10" class="node">
<title>Festival Womad 2002</title>
<g id="a_node10"><a xlink:href="Festival Womad 2002.html" xlink:title="Festival Womad 2002">
<ellipse fill="none" stroke="#000000" cx="258.4173" cy="-18" rx="87.2068" ry="18"/>
<text text-anchor="middle" x="258.4173" y="-13.8" font-family="Times,serif" font-size="14.00" fill="#000000">Festival Womad 2002</text>
</a>
</g>
</g>
<!-- Mariza&#45;&gt;Festival Womad 2002 -->
<g id="edge10" class="edge">
<title>Mariza&#45;&gt;Festival Womad 2002</title>
<path fill="none" stroke="#000000" d="M49.6848,-109.4898C59.7154,-98.8568 73.8098,-85.3285 88.2949,-76 118.4896,-56.5546 155.9204,-42.8706 187.9777,-33.6979"/>
<polygon fill="#000000" stroke="#000000" points="189.0367,-37.0364 197.74,-30.9947 187.1686,-30.2903 189.0367,-37.0364"/>
<text text-anchor="middle" x="117.0674" y="-78.8" font-family="Times,serif" font-size="14.00" fill="#000000">Participou</text>
</g>
</g>
</svg>
