<?xml version="1.0" encoding="UTF-8" standalone="no"?>
<!DOCTYPE svg PUBLIC "-//W3C//DTD SVG 1.1//EN"
 "http://www.w3.org/Graphics/SVG/1.1/DTD/svg11.dtd">
<!-- Generated by graphviz version 2.40.1 (20161225.0304)
 -->
<!-- Title: %3 Pages: 1 -->
<svg width="727pt" height="292pt"
 viewBox="0.00 0.00 726.82 292.00" xmlns="http://www.w3.org/2000/svg" xmlns:xlink="http://www.w3.org/1999/xlink">
<g id="graph0" class="graph" transform="scale(1 1) rotate(0) translate(4 288)">
<title>%3</title>
<polygon fill="#ffffff" stroke="transparent" points="-4,4 -4,-288 722.8221,-288 722.8221,4 -4,4"/>
<!-- Tiago Miranda -->
<g id="node1" class="node">
<title>Tiago Miranda</title>
<g id="a_node1"><a xlink:href="Tiago Miranda.html" xlink:title="Tiago Miranda">
<ellipse fill="none" stroke="#000000" cx="259.9759" cy="-185" rx="62.6954" ry="18"/>
<text text-anchor="middle" x="259.9759" y="-180.8" font-family="Times,serif" font-size="14.00" fill="#000000">Tiago Miranda</text>
</a>
</g>
</g>
<!-- Telemoveis -->
<g id="node2" class="node">
<title>Telemoveis</title>
<g id="a_node2"><a xlink:href="Telemoveis.html" xlink:title="Telemoveis">
<ellipse fill="none" stroke="#000000" cx="583.4602" cy="-266" rx="50.9901" ry="18"/>
<text text-anchor="middle" x="583.4602" y="-261.8" font-family="Times,serif" font-size="14.00" fill="#000000">Telemoveis</text>
</a>
</g>
</g>
<!-- Tiago Miranda&#45;&gt;Telemoveis -->
<g id="edge1" class="edge">
<title>Tiago Miranda&#45;&gt;Telemoveis</title>
<path fill="none" stroke="#000000" d="M302.6687,-198.347C340.6242,-209.9508 397.7435,-226.773 448.0983,-239 474.1934,-245.3363 503.3801,-251.2989 527.9516,-256.0009"/>
<polygon fill="#000000" stroke="#000000" points="527.3483,-259.4487 537.8248,-257.8702 528.6505,-252.5709 527.3483,-259.4487"/>
<text text-anchor="middle" x="401.3259" y="-235.8" font-family="Times,serif" font-size="14.00" fill="#000000">Produziu</text>
</g>
<!-- Celulitite -->
<g id="node3" class="node">
<title>Celulitite</title>
<g id="a_node3"><a xlink:href="Celulitite.html" xlink:title="Celulitite">
<ellipse fill="none" stroke="#000000" cx="583.4602" cy="-212" rx="43.0387" ry="18"/>
<text text-anchor="middle" x="583.4602" y="-207.8" font-family="Times,serif" font-size="14.00" fill="#000000">Celulitite</text>
</a>
</g>
</g>
<!-- Tiago Miranda&#45;&gt;Celulitite -->
<g id="edge2" class="edge">
<title>Tiago Miranda&#45;&gt;Celulitite</title>
<path fill="none" stroke="#000000" d="M320.4414,-190.0468C380.9923,-195.1008 473.2304,-202.7995 530.8454,-207.6084"/>
<polygon fill="#000000" stroke="#000000" points="530.5779,-211.0982 540.8344,-208.4422 531.1602,-204.1225 530.5779,-211.0982"/>
<text text-anchor="middle" x="401.3259" y="-200.8" font-family="Times,serif" font-size="14.00" fill="#000000">Produziu</text>
</g>
<!-- Festival RTP da Cancao 2019 -->
<g id="node4" class="node">
<title>Festival RTP da Cancao 2019</title>
<g id="a_node4"><a xlink:href="Festival RTP da Cancao 2019.html" xlink:title="Festival RTP da Cancao 2019">
<ellipse fill="none" stroke="#000000" cx="583.4602" cy="-158" rx="114.7452" ry="18"/>
<text text-anchor="middle" x="583.4602" y="-153.8" font-family="Times,serif" font-size="14.00" fill="#000000">Festival RTP da Cancao 2019</text>
</a>
</g>
</g>
<!-- Tiago Miranda&#45;&gt;Festival RTP da Cancao 2019 -->
<g id="edge3" class="edge">
<title>Tiago Miranda&#45;&gt;Festival RTP da Cancao 2019</title>
<path fill="none" stroke="#000000" d="M320.4414,-179.9532C362.958,-176.4045 421.0976,-171.5518 471.904,-167.3112"/>
<polygon fill="#000000" stroke="#000000" points="472.2865,-170.7915 481.9607,-166.4718 471.7042,-163.8158 472.2865,-170.7915"/>
<text text-anchor="middle" x="401.3259" y="-177.8" font-family="Times,serif" font-size="14.00" fill="#000000">Participou</text>
</g>
<!-- Festival Eurovisao da Cancao 2019 -->
<g id="node5" class="node">
<title>Festival Eurovisao da Cancao 2019</title>
<g id="a_node5"><a xlink:href="Festival Eurovisao da Cancao 2019.html" xlink:title="Festival Eurovisao da Cancao 2019">
<ellipse fill="none" stroke="#000000" cx="583.4602" cy="-104" rx="135.224" ry="18"/>
<text text-anchor="middle" x="583.4602" y="-99.8" font-family="Times,serif" font-size="14.00" fill="#000000">Festival Eurovisao da Cancao 2019</text>
</a>
</g>
</g>
<!-- Tiago Miranda&#45;&gt;Festival Eurovisao da Cancao 2019 -->
<g id="edge4" class="edge">
<title>Tiago Miranda&#45;&gt;Festival Eurovisao da Cancao 2019</title>
<path fill="none" stroke="#000000" d="M302.6687,-171.653C340.6242,-160.0492 397.7435,-143.227 448.0983,-131 462.9026,-127.4053 478.7019,-123.9308 494.0891,-120.7386"/>
<polygon fill="#000000" stroke="#000000" points="495.0319,-124.1183 504.1265,-118.6832 493.6276,-117.2606 495.0319,-124.1183"/>
<text text-anchor="middle" x="401.3259" y="-152.8" font-family="Times,serif" font-size="14.00" fill="#000000">Participou</text>
</g>
<!-- Mariza -->
<g id="node6" class="node">
<title>Mariza</title>
<g id="a_node6"><a xlink:href="Mariza.html" xlink:title="Mariza">
<ellipse fill="none" stroke="#000000" cx="35.1475" cy="-117" rx="35.2956" ry="18"/>
<text text-anchor="middle" x="35.1475" y="-112.8" font-family="Times,serif" font-size="14.00" fill="#000000">Mariza</text>
</a>
</g>
</g>
<!-- Mariza&#45;&gt;Tiago Miranda -->
<g id="edge5" class="edge">
<title>Mariza&#45;&gt;Tiago Miranda</title>
<g id="a_edge5"><a xlink:href="Tiago Miranda.html" xlink:title="Colaborou">
<path fill="none" stroke="#000000" d="M47.2804,-133.9162C56.9239,-145.9262 71.5444,-161.2426 88.2949,-169 119.1784,-183.3026 156.4929,-188.0569 188.4346,-188.923"/>
<polygon fill="#000000" stroke="#000000" points="188.5504,-192.425 198.6015,-189.0748 188.6549,-185.4258 188.5504,-192.425"/>
</a>
</g>
<g id="a_edge5&#45;label"><a xlink:href="Tiago Miranda.html" xlink:title="Colaborou">
<text text-anchor="middle" x="117.8467" y="-187.8" font-family="Times,serif" font-size="14.00" fill="#000000">Colaborou</text>
</a>
</g>
</g>
<!-- Mariza&#45;&gt;Tiago Miranda -->
<g id="edge6" class="edge">
<title>Mariza&#45;&gt;Tiago Miranda</title>
<g id="a_edge6"><a xlink:href="Tiago Miranda.html" xlink:title="Aprendeu">
<path fill="none" stroke="#000000" d="M65.4688,-126.1708C101.6845,-137.1243 162.8946,-155.6375 206.9866,-168.9732"/>
<polygon fill="#000000" stroke="#000000" points="206.0937,-172.3597 216.6787,-171.9046 208.1202,-165.6594 206.0937,-172.3597"/>
</a>
</g>
<g id="a_edge6&#45;label"><a xlink:href="Tiago Miranda.html" xlink:title="Aprendeu">
<text text-anchor="middle" x="117.8467" y="-150.8" font-family="Times,serif" font-size="14.00" fill="#000000">Aprendeu</text>
</a>
</g>
</g>
<!-- Lavava No Rio, Lavava -->
<g id="node7" class="node">
<title>Lavava No Rio, Lavava</title>
<g id="a_node7"><a xlink:href="Lavava No Rio, Lavava.html" xlink:title="Lavava No Rio, Lavava">
<ellipse fill="none" stroke="#000000" cx="259.9759" cy="-126" rx="94.655" ry="18"/>
<text text-anchor="middle" x="259.9759" y="-121.8" font-family="Times,serif" font-size="14.00" fill="#000000">Lavava No Rio, Lavava</text>
</a>
</g>
</g>
<!-- Mariza&#45;&gt;Lavava No Rio, Lavava -->
<g id="edge7" class="edge">
<title>Mariza&#45;&gt;Lavava No Rio, Lavava</title>
<path fill="none" stroke="#000000" d="M70.5505,-116.7538C92.653,-116.7394 121.6938,-116.9732 147.3985,-118 152.1646,-118.1904 157.0422,-118.4169 161.9671,-118.671"/>
<polygon fill="#000000" stroke="#000000" points="161.945,-122.1749 172.1219,-119.2284 162.3288,-115.1855 161.945,-122.1749"/>
<text text-anchor="middle" x="117.8467" y="-120.8" font-family="Times,serif" font-size="14.00" fill="#000000">Produziu</text>
</g>
<!-- Promete, Jura -->
<g id="node8" class="node">
<title>Promete, Jura</title>
<g id="a_node8"><a xlink:href="Promete, Jura.html" xlink:title="Promete, Jura">
<ellipse fill="none" stroke="#000000" cx="259.9759" cy="-72" rx="58.9668" ry="18"/>
<text text-anchor="middle" x="259.9759" y="-67.8" font-family="Times,serif" font-size="14.00" fill="#000000">Promete, Jura</text>
</a>
</g>
</g>
<!-- Mariza&#45;&gt;Promete, Jura -->
<g id="edge8" class="edge">
<title>Mariza&#45;&gt;Promete, Jura</title>
<path fill="none" stroke="#000000" d="M62.9689,-105.9138C71.0401,-103.0103 79.9333,-100.1068 88.2949,-98 122.7174,-89.3271 161.7974,-83.1317 193.9669,-78.9697"/>
<polygon fill="#000000" stroke="#000000" points="194.6687,-82.4092 204.1541,-77.6893 193.7957,-75.4638 194.6687,-82.4092"/>
<text text-anchor="middle" x="117.8467" y="-100.8" font-family="Times,serif" font-size="14.00" fill="#000000">Produziu</text>
</g>
<!-- Festival Womad 2002 -->
<g id="node9" class="node">
<title>Festival Womad 2002</title>
<g id="a_node9"><a xlink:href="Festival Womad 2002.html" xlink:title="Festival Womad 2002">
<ellipse fill="none" stroke="#000000" cx="259.9759" cy="-18" rx="87.2068" ry="18"/>
<text text-anchor="middle" x="259.9759" y="-13.8" font-family="Times,serif" font-size="14.00" fill="#000000">Festival Womad 2002</text>
</a>
</g>
</g>
<!-- Mariza&#45;&gt;Festival Womad 2002 -->
<g id="edge9" class="edge">
<title>Mariza&#45;&gt;Festival Womad 2002</title>
<path fill="none" stroke="#000000" d="M49.4546,-100.3585C59.388,-89.7432 73.4605,-76.4417 88.2949,-68 117.5106,-51.3746 152.7263,-39.8681 183.6393,-32.1245"/>
<polygon fill="#000000" stroke="#000000" points="184.6126,-35.4902 193.5118,-29.7409 182.9696,-28.6857 184.6126,-35.4902"/>
<text text-anchor="middle" x="117.8467" y="-70.8" font-family="Times,serif" font-size="14.00" fill="#000000">Participou</text>
</g>
</g>
</svg>
