<?xml version="1.0" encoding="UTF-8" standalone="no"?>
<!DOCTYPE svg PUBLIC "-//W3C//DTD SVG 1.1//EN"
 "http://www.w3.org/Graphics/SVG/1.1/DTD/svg11.dtd">
<!-- Generated by graphviz version 2.40.1 (20161225.0304)
 -->
<!-- Title: %3 Pages: 1 -->
<svg width="264pt" height="98pt"
 viewBox="0.00 0.00 264.08 98.00" xmlns="http://www.w3.org/2000/svg" xmlns:xlink="http://www.w3.org/1999/xlink">
<g id="graph0" class="graph" transform="scale(1 1) rotate(0) translate(4 94)">
<title>%3</title>
<polygon fill="#ffffff" stroke="transparent" points="-4,4 -4,-94 260.0775,-94 260.0775,4 -4,4"/>
<!-- Tiago Miranda -->
<g id="node1" class="node">
<title>Tiago Miranda</title>
<ellipse fill="none" stroke="#000000" cx="62.5976" cy="-72" rx="62.6954" ry="18"/>
<text text-anchor="middle" x="62.5976" y="-67.8" font-family="Times,serif" font-size="14.00" fill="#000000">Tiago Miranda</text>
</g>
<g id="node2" class="node">
<title></title>
<ellipse fill="none" stroke="#000000" cx="208.6364" cy="-72" rx="27" ry="18"/>
</g>
<!-- Tiago Miranda&#45;&gt; -->
<g id="edge1" class="edge">
<title>Tiago Miranda&#45;&gt;</title>
<path fill="none" stroke="#000000" d="M125.3787,-72C141.0263,-72 157.3137,-72 171.2897,-72"/>
<polygon fill="#000000" stroke="#000000" points="171.4779,-75.5001 181.4778,-72 171.4778,-68.5001 171.4779,-75.5001"/>
</g>
<!-- Mariza -->
<g id="node3" class="node">
<title>Mariza</title>
<ellipse fill="none" stroke="#000000" cx="62.5976" cy="-18" rx="35.2956" ry="18"/>
<text text-anchor="middle" x="62.5976" y="-13.8" font-family="Times,serif" font-size="14.00" fill="#000000">Mariza</text>
</g>
<!-- Mariza&#45;&gt; -->
<g id="edge2" class="edge">
<title>Mariza&#45;&gt;</title>
<path fill="none" stroke="#000000" d="M91.102,-28.5399C115.2845,-37.4818 150.0004,-50.3185 175.4333,-59.7227"/>
<polygon fill="#000000" stroke="#000000" points="174.4311,-63.0837 185.0244,-63.2691 176.8589,-56.5181 174.4311,-63.0837"/>
</g>
<!-- Artur Batalha -->
<g id="node4" class="node">
<title>Artur Batalha</title>
<ellipse fill="none" stroke="#000000" cx="208.6364" cy="-18" rx="47.3823" ry="18"/>
<text text-anchor="middle" x="208.6364" y="-13.8" font-family="Times,serif" font-size="14.00" fill="#000000">Colaborou</text>
</g>
<!-- Mariza&#45;&gt;Artur Batalha -->
<g id="edge3" class="edge">
<title>Mariza&#45;&gt;Artur Batalha</title>
<path fill="none" stroke="#000000" d="M97.9495,-18C113.901,-18 133.1551,-18 151.1012,-18"/>
<polygon fill="#000000" stroke="#000000" points="151.1934,-21.5001 161.1934,-18 151.1934,-14.5001 151.1934,-21.5001"/>
</g>
</g>
</svg>
